# AST/ASF file generated using VICON BodyLanguage
# -----------------------------------------------
:version 1.10
:name VICON
:units
  mass 1.0
  length 0.45
  angle deg
:documentation
   .ast/.asf automatically generated from VICON data using
   VICON BodyBuilder and BodyLanguage model FoxedUp or BRILLIANT.MOD
:root
   order TX TY TZ RX RY RZ
   axis XYZ
   position 0 0 0  
   orientation 0 0 0 
:bonedata
  begin
     id 1 
     name lhipjoint
     direction 0.522423 -0.726805 0.445902 
     length 2.25074 
     axis 0 0 0  XYZ
  end
  begin
     id 2 
     name lfemur
     direction 0.34202 -0.939693 0  
     length 6.54609  
     axis 0 0 20  XYZ
    dof rx ry rz
    limits (-160.0 20.0)
           (-70.0 70.0)
           (-60.0 70.0)
  end
  begin
     id 3 
     name ltibia
     direction 0.34202 -0.939693 0   
     length 7.7528   
     axis 0 0 20   XYZ
    dof rx
    limits (-10.0 170.0)
  end
  begin
     id 4 
     name lfoot
     direction 0.143696 -0.394801 0.90746   
     length 1.73269   
     axis -90 7.62852e-016 20   XYZ
    dof rx rz
    limits (-45.0 90.0)
           (-70.0 20.0)
  end
  begin
     id 5 
     name ltoes
     direction 1.53633e-011 -4.21912e-011 1   
     length 0.858383   
     axis -90 7.62852e-016 20   XYZ
    dof rx
    limits (-90.0 20.0)
  end
  begin
     id 6 
     name rhipjoint
     direction -0.515943 -0.73016 0.447961   
     length 2.2404  
     axis 0 0 0  XYZ 
  end
  begin
     id 7 
     name rfemur
     direction -0.34202 -0.939693 0   
     length 6.84377   
     axis 0 0 -20   XYZ
    dof rx ry rz
    limits (-160.0 20.0)
           (-70.0 70.0)
           (-70.0 60.0)
  end
  begin
     id 8 
     name rtibia
     direction -0.34202 -0.939693 0   
     length 7.57596   
     axis 0 0 -20   XYZ
    dof rx
    limits (-10.0 170.0)
 end
 begin
     id 9 
     name rfoot
     direction -0.0999372 -0.274575 0.956358   
     length 1.78783  
     axis -90 -7.62852e-016 -20   XYZ
    dof rx rz
    limits (-45.0 90.0)
           (-20.0 70.0)
  end
  begin
     id 10 
     name rtoes
     direction -1.53535e-011 -4.21895e-011 1   
     length 0.898614   
     axis -90 -7.62852e-016 -20   XYZ
    dof rx
    limits (-90.0 20.0)
  end
  begin
     id 11 
     name lowerback
     direction -0.011775 0.996164 -0.0867116   
     length 1.91499   
     axis 0 0 0   XYZ
    dof rx ry rz
    limits (-20.0 45.0)
           (-30.0 30.0)
           (-30.0 30.0)
  end
  begin
     id 12 
     name upperback
     direction -0.00189771 0.999673 -0.0254833   
     length 1.92213   
     axis 0 0 0   XYZ
    dof rx ry rz
    limits (-20.0 45.0)
           (-30.0 30.0)
           (-30.0 30.0)
  end
  begin
     id 13 
     name thorax
     direction 0.00335995 0.999878 0.0152401   
     length 1.93138   
     axis 0 0 0   XYZ
    dof rx ry rz
    limits (-20.0 45.0)
           (-30.0 30.0)
           (-30.0 30.0)
  end
  begin
     id 14 
     name lowerneck
     direction 0.00233191 0.998509 0.0545404   
     length 1.59408   
     axis 0 0 0   XYZ
    dof rx ry rz
    limits (-20.0 45.0)
           (-30.0 30.0)
           (-30.0 30.0)
  end
  begin
     id 15 
     name upperneck
     direction 0.07881 0.9956 -0.0506934   
     length 1.59344   
     axis 0 0 0   XYZ
    dof rx ry rz
    limits (-20.0 45.0)
           (-30.0 30.0)
           (-30.0 30.0)
  end
  begin
     id 16
     name head
     direction 0.0261681 0.999378 -0.0236299  
     length 1.60935  
     axis 0 0 0   XYZ
    dof rx ry rz
    limits (-20.0 45.0)
           (-30.0 30.0)
           (-30.0 30.0)
  end
  begin
     id 17 
     name lclavicle
     direction 0.96643 0.252035 0.0499195  
     length 3.82153  
     axis 0 0 0   XYZ
    dof ry rz
    limits (-20.0 10.0)
           (0.0 20.0)
  end
  begin
     id 18 
     name lhumerus
     direction 1 -4.48967e-011 -2.01614e-018   
     length 4.87796   
     axis 180 -30 -90   XYZ
    dof rx ry rz
    limits (-60.0 90.0)
           (-90.0 90.0)
           (-90.0 90.0)
  end
  begin
     id 19
     name lradius
     direction 1 -4.48958e-011 3.1409e-027   
     length 3.23169   
     axis 180 -30 -90   XYZ
    dof rx
    limits (-10.0 170.0)
  end
  begin
     id 20
     name lwrist
     direction 1 -4.48924e-011 1.0365e-027   
     length 1.61584   
     axis -2.56395e-016 90 90   XYZ
    dof ry
    limits (-180.0 0.0)
 end
  begin
     id 21 
     name lhand
     direction 1 -4.49055e-011 2.09488e-027   
     length 0.731324   
     axis -1.32723e-015 90 90   XYZ
    dof rx rz
    limits (-90.0 90.0)
           (-45.0 45.0)
  end
  begin
     id 22 
     name lfingers
     direction 1 -4.48935e-011 4.14981e-027   
     length 0.589612   
     axis -2.6545e-015 90 90   XYZ
    dof rx
    limits (0.0 90.0)
  end
  begin
     id 23
     name lthumb
     direction 0.707107 -6.35097e-011 0.707107   
     length 0.846569   
     axis -90 45 5.05613e-014   XYZ
    dof rx rz
    limits (-45.0 45.0)
           (-45.0 45.0)
  end
  begin
     id 24 
     name rclavicle
     direction -0.979337 0.201016 0.0221522   
     length 3.73827  
     axis 0 0 0   XYZ 
    dof ry rz
    limits (-10.0 20.0)
           (-20.0 0.0)
  end
  begin
     id 25 
     name rhumerus
     direction -1 -4.48971e-011 1.65907e-027  
     length 4.9143   
     axis 180 30 90   XYZ
    dof rx ry rz
    limits (-90.0 60.0)
           (-90.0 90.0)
           (-90.0 90.0)
  end
  begin
     id 26 
     name rradius
     direction -1 -4.4894e-011 2.17871e-028   
     length 3.29093   
     axis 180 30 90   XYZ
    dof rx
    limits (-10.0 170.0)
  end
  begin
     id 27 
     name rwrist
     direction -1 -4.48971e-011 1.04038e-027   
     length 1.64546   
     axis -2.56395e-016 -90 -90   XYZ
    dof ry
    limits (-180.0 0.0)
  end
  begin
     id 28
     name rhand
     direction -1 -4.49017e-011 2.08843e-027   
     length 0.54512   
     axis -1.32723e-015 -90 -90   XYZ
    dof rx rz
    limits (-90.0 90.0)
           (-45.0 45.0)
  end
  begin
     id 29
     name rfingers
     direction -1 -4.48918e-011 4.1439e-027   
     length 0.43949   
     axis -2.6545e-015 -90 -90   XYZ
    dof rx
    limits (0.0 90.0)
  end
  begin
     id 30
     name rthumb
     direction -0.707107 -6.35065e-011 0.707107   
     length 0.631022   
     axis -90 -45 -5.05613e-014   XYZ
    dof rx rz
    limits (-45.0 45.0)
           (-45.0 45.0)
  end
:hierarchy
  begin
    root lhipjoint rhipjoint lowerback
    lhipjoint lfemur
    lfemur ltibia
    ltibia lfoot
    lfoot ltoes
    rhipjoint rfemur
    rfemur rtibia
    rtibia rfoot
    rfoot rtoes
    lowerback upperback
    upperback thorax
    thorax lowerneck lclavicle rclavicle
    lowerneck upperneck
    upperneck head
    lclavicle lhumerus
    lhumerus lradius
    lradius lwrist
    lwrist lhand lthumb
    lhand lfingers
    rclavicle rhumerus
    rhumerus rradius
    rradius rwrist
    rwrist rhand rthumb
    rhand rfingers
  end

#!OML:ASF H:\BreakDance\Project 1\Capture day 1\Session 1\Male.ASF
:FULLY-SPECIFIED
:DEGREES
1
root 1.50795 14.2887 -1.2423 -24.2505 -88.9799 22.3345
lowerback 9.06753 0.691883 -3.20325
upperback 3.49174 0.518643 -0.696115
thorax -1.48579 0.1961 1.02974
lowerneck -7.99716 -2.33575 -2.71156
upperneck 4.46717 -3.65868 10.7535
head 2.89458 -1.50979 3.51747
rclavicle -1.98785e-015 2.10712e-014
rhumerus 18.593 3.62689 -78.7056
rradius 91.2859
rwrist 7.56622
rhand -1.86272 -53.7429
rfingers 7.12502
rthumb 23.8051 -82.288
lclavicle -1.98785e-015 2.10712e-014
lhumerus 25.855 -7.68613 79.5154
lradius 84.4396
lwrist -28.3216
lhand 13.9972 -15.1227
lfingers 7.12502
lthumb 38.9069 10.4239
rfemur -37.3185 -21.5159 4.1311
rtibia 69.9624
rfoot -26.9535 1.94638
rtoes -16.9664
lfemur -39.7142 21.306 -7.78192
ltibia 72.04
lfoot -30.3875 -3.75182
ltoes -17.0204
2
root 1.50783 14.2827 -1.24266 -21.8166 -88.9892 19.9051
lowerback 9.07082 0.689044 -3.12282
upperback 3.48761 0.521489 -0.706679
thorax -1.49135 0.198243 0.973365
lowerneck -8.13256 -2.32214 -2.61069
upperneck 4.61975 -3.66357 10.7206
head 2.96052 -1.50329 3.48934
rclavicle 1.88845e-015 1.11319e-014
rhumerus 18.5341 3.60131 -78.7472
rradius 91.1964
rwrist 7.61373
rhand -1.70653 -53.6625
rfingers 7.12502
rthumb 23.9548 -82.1881
lclavicle 1.88845e-015 1.11319e-014
lhumerus 25.8166 -7.69281 79.4544
lradius 84.498
lwrist -28.5113
lhand 14.4494 -15.0648
lfingers 7.12502
lthumb 39.3331 10.359
rfemur -37.3049 -21.496 4.16164
rtibia 70.0088
rfoot -26.994 2.02636
rtoes -16.7528
lfemur -39.7594 21.3339 -7.72638
ltibia 72.0935
lfoot -30.3707 -3.75863
ltoes -17.0619
3
root 1.50722 14.2847 -1.24316 -21.307 -88.975 19.395
lowerback 9.08692 0.688207 -3.11001
upperback 3.48113 0.520865 -0.705482
thorax -1.50683 0.19834 0.96733
lowerneck -8.13497 -2.29608 -2.62895
upperneck 4.63386 -3.63368 10.7852
head 2.96483 -1.48638 3.51374
rclavicle -5.91384e-015 1.59028e-015
rhumerus 18.4286 3.59228 -78.7455
rradius 91.1635
rwrist 7.58701
rhand -1.55539 -53.7119
rfingers 7.12502
rthumb 24.0998 -82.2184
lclavicle -5.91384e-015 1.59028e-015
lhumerus 25.7295 -7.69235 79.4546
lradius 84.569
lwrist -28.6636
lhand 14.6916 -14.9661
lfingers 7.12502
lthumb 39.5612 10.3908
rfemur -37.3089 -21.5046 4.17332
rtibia 69.9945
rfoot -26.9745 1.96661
rtoes -16.9903
lfemur -39.7483 21.3288 -7.72213
ltibia 72.0713
lfoot -30.3468 -3.82296
ltoes -17.0118
4
root 1.50537 14.2876 -1.24414 -21.0726 -88.9661 19.1399
lowerback 9.0576 0.710334 -3.09324
upperback 3.5237 0.552705 -0.69916
thorax -1.44783 0.212548 0.961584
lowerneck -8.13305 -2.31937 -2.72091
upperneck 4.55426 -3.6576 10.9024
head 2.94659 -1.49856 3.56352
rclavicle 9.54166e-015 -5.96354e-015
rhumerus 18.4155 3.54041 -78.6875
rradius 91.1314
rwrist 7.51218
rhand -1.65583 -53.9064
rfingers 7.12502
rthumb 24.0035 -82.4256
lclavicle 9.54166e-015 -5.96354e-015
lhumerus 25.7193 -7.74101 79.4752
lradius 84.5064
lwrist -28.7285
lhand 14.5455 -15.0861
lfingers 7.12502
lthumb 39.4237 10.3112
rfemur -37.2915 -21.4979 4.17311
rtibia 69.9715
rfoot -26.9619 1.93185
rtoes -17.1124
lfemur -39.6992 21.3295 -7.71016
ltibia 72.0507
lfoot -30.3495 -3.94665
ltoes -16.7945
5
root 1.50395 14.2877 -1.24509 -20.103 -88.9796 18.1353
lowerback 9.04666 0.73173 -3.05335
upperback 3.57159 0.584376 -0.698254
thorax -1.39321 0.226701 0.93721
lowerneck -8.16605 -2.37346 -2.78959
upperneck 4.53132 -3.73091 11.017
head 2.95422 -1.53225 3.60567
rclavicle -1.2424e-015 6.36111e-015
rhumerus 18.4226 3.5105 -78.6701
rradius 91.1146
rwrist 7.49069
rhand -1.73577 -54.0021
rfingers 7.12502
rthumb 23.9268 -82.5314
lclavicle -1.2424e-015 6.36111e-015
lhumerus 25.7238 -7.7841 79.4672
lradius 84.3432
lwrist -28.6985
lhand 14.2891 -15.3335
lfingers 7.12502
lthumb 39.1821 10.1341
rfemur -37.2336 -21.4596 4.18561
rtibia 69.9544
rfoot -27.006 1.90404
rtoes -17.2347
lfemur -39.6424 21.3525 -7.66421
ltibia 72.0348
lfoot -30.3352 -4.03763
ltoes -16.6287
6
root 1.50275 14.2895 -1.24462 -23.2656 -88.9385 21.3049
lowerback 9.03249 0.730757 -3.09578
upperback 3.57939 0.579004 -0.73123
thorax -1.37713 0.223407 0.927672
lowerneck -8.21359 -2.40456 -2.797
upperneck 4.59098 -3.78056 11.0489
head 2.98434 -1.55275 3.61352
rclavicle 2.28602e-015 2.38542e-015
rhumerus 18.3762 3.51704 -78.7164
rradius 91.0952
rwrist 7.49486
rhand -1.65424 -53.8538
rfingers 7.12502
rthumb 24.005 -82.3728
lclavicle 2.28602e-015 2.38542e-015
lhumerus 25.7183 -7.78848 79.4373
lradius 84.1982
lwrist -28.6291
lhand 14.211 -15.4559
lfingers 7.12502
lthumb 39.1084 10.033
rfemur -37.2087 -21.4634 4.10131
rtibia 69.9391
rfoot -27.0149 1.86306
rtoes -17.3621
lfemur -39.6387 21.3336 -7.75347
ltibia 72.0188
lfoot -30.3485 -4.03527
ltoes -16.5717
